<?xml version="1.0" standalone="no"?>
<!DOCTYPE svg PUBLIC "-//W3C//DTD SVG 20010904//EN"
 "http://www.w3.org/TR/2001/REC-SVG-20010904/DTD/svg10.dtd">
<svg version="1.0" xmlns="http://www.w3.org/2000/svg"
 width="360.000000pt" height="360.000000pt" viewBox="0 0 360.000000 360.000000"
 preserveAspectRatio="xMidYMid meet">

<g transform="translate(0.000000,360.000000) scale(0.100000,-0.100000)"
fill="#000000" stroke="none">
<path d="M0 1800 l0 -1800 1800 0 1800 0 0 1800 0 1800 -1800 0 -1800 0 0
-1800z m1553 698 c7 -25 3 -33 -12 -23 -13 8 -15 45 -2 45 5 0 11 -10 14 -22z
m55 -30 c-3 -7 -15 -15 -28 -16 -21 -3 -22 -2 -11 12 16 19 44 21 39 4z m-68
-17 c0 -11 -39 -25 -47 -18 -3 3 -2 10 2 16 8 13 45 15 45 2z m34 -27 c7 -19
-2 -37 -15 -29 -12 8 -12 45 0 45 5 0 12 -7 15 -16z m36 -152 c54 -27 61 -29
116 -20 33 6 102 7 155 4 93 -6 99 -5 162 25 124 58 169 31 172 -101 1 -51 7
-75 28 -110 69 -119 56 -319 -28 -417 -38 -45 -127 -93 -171 -93 -23 0 -25 -3
-19 -22 4 -13 10 -77 12 -143 5 -111 7 -122 30 -147 36 -37 26 -75 -21 -84
-19 -3 -40 -3 -46 1 -6 4 -20 -2 -31 -14 -26 -27 -43 -26 -96 5 -41 24 -46 24
-62 10 -9 -9 -32 -21 -50 -27 -28 -10 -36 -9 -60 9 -18 13 -37 18 -54 15 -33
-6 -77 20 -77 45 0 10 11 29 25 42 19 18 25 34 25 67 0 43 0 43 -35 43 -20 0
-50 6 -68 14 -36 14 -97 79 -97 101 0 7 -20 34 -45 59 -25 26 -45 53 -45 60 0
27 31 46 72 46 36 0 46 -6 97 -60 52 -55 61 -60 99 -60 35 0 42 3 42 20 0 14
-7 20 -22 20 -66 0 -186 89 -222 164 -49 104 -45 287 9 346 11 12 16 41 18
102 2 62 7 92 21 112 16 26 22 28 63 23 25 -3 71 -18 103 -35z m760 -117 c17
-9 30 -19 30 -23 0 -10 -71 -45 -77 -38 -8 8 7 26 23 26 21 0 17 18 -6 25 -21
7 -28 25 -10 25 6 0 24 -7 40 -15z m-1120 -275 c0 -5 -7 -10 -15 -10 -8 0 -15
5 -15 10 0 6 7 10 15 10 8 0 15 -4 15 -10z m40 -21 c0 -5 -7 -9 -15 -9 -15 0
-20 12 -9 23 8 8 24 -1 24 -14z m-62 -11 c-6 -18 -28 -21 -28 -4 0 9 7 16 16
16 9 0 14 -5 12 -12z m36 -17 c3 -5 -1 -11 -9 -15 -9 -3 -15 0 -15 9 0 16 16
20 24 6z m1027 -332 c17 -33 -3 -69 -39 -69 -33 0 -52 16 -52 45 0 29 19 45
52 45 18 0 31 -7 39 -21z m-821 -174 c26 -31 -13 -82 -44 -56 -21 18 -20 48 2
60 23 14 28 13 42 -4z m820 -190 c0 -11 -12 -15 -50 -15 -38 0 -50 4 -50 15 0
11 12 15 50 15 38 0 50 -4 50 -15z m-50 -40 c0 -13 -15 -15 -92 -13 -62 2 -93
7 -96 16 -3 9 20 12 92 12 80 0 96 -3 96 -15z"/>
<path d="M1469 2258 c-7 -12 -13 -57 -13 -98 -1 -64 -5 -82 -30 -123 -27 -46
-28 -52 -24 -150 3 -86 8 -110 31 -154 40 -78 125 -133 230 -148 44 -7 47 -9
33 -24 -8 -9 -19 -28 -25 -43 -11 -30 -53 -44 -106 -34 -24 5 -46 21 -74 55
-46 55 -95 81 -114 62 -9 -10 -6 -17 16 -33 15 -11 39 -42 52 -68 13 -26 38
-59 55 -74 27 -22 41 -26 96 -26 l64 0 0 -68 c0 -60 -3 -71 -25 -92 -32 -30
-32 -40 0 -40 33 0 81 25 89 45 3 9 6 60 6 113 0 53 5 104 10 112 17 27 12
-220 -5 -254 -8 -15 -15 -32 -15 -37 0 -20 43 -7 71 20 l29 29 0 131 c0 81 4
131 10 131 6 0 10 -45 10 -114 0 -62 5 -127 11 -145 11 -31 52 -61 84 -61 19
0 19 3 -5 42 -17 28 -20 51 -20 151 0 65 4 116 8 113 5 -3 12 -55 16 -115 3
-61 9 -116 12 -124 7 -19 48 -37 86 -37 l30 0 -32 37 c-31 34 -32 39 -26 94
11 90 -3 186 -30 219 l-24 28 47 7 c112 17 188 64 228 144 24 47 34 173 20
243 -6 31 -23 74 -38 95 -23 33 -27 50 -27 107 0 91 -11 110 -58 101 -21 -4
-61 -19 -90 -35 -49 -27 -56 -28 -123 -19 -61 7 -196 1 -234 -12 -5 -2 -39 11
-75 28 -94 47 -116 50 -131 21z"/>
<path d="M2233 1484 c-8 -21 13 -42 28 -27 13 13 5 43 -11 43 -6 0 -13 -7 -17
-16z"/>
<path d="M1440 1300 c0 -5 5 -10 10 -10 6 0 10 5 10 10 0 6 -4 10 -10 10 -5 0
-10 -4 -10 -10z"/>
</g>
</svg>
