<?xml version="1.0" standalone="no"?>
<!DOCTYPE svg PUBLIC "-//W3C//DTD SVG 20010904//EN"
 "http://www.w3.org/TR/2001/REC-SVG-20010904/DTD/svg10.dtd">
<svg version="1.0" xmlns="http://www.w3.org/2000/svg"
 width="1024.000000pt" height="1024.000000pt" viewBox="0 0 1024.000000 1024.000000"
 preserveAspectRatio="xMidYMid meet">

<g transform="translate(0.000000,1024.000000) scale(0.100000,-0.100000)"
fill="#000000" stroke="none">
<path d="M4957 9064 c-4 -4 -7 -29 -7 -56 l0 -49 103 3 102 3 0 50 0 50 -95 3
c-53 1 -99 0 -103 -4z"/>
<path d="M2518 8908 l-3 -53 -40 -5 -40 -5 -3 -62 -3 -62 -47 -3 -47 -3 0
-110 0 -110 -45 -5 -45 -5 -5 -90 -5 -90 -37 -3 -38 -3 0 -215 0 -214 40 0 40
0 0 -215 0 -215 45 0 44 0 3 -102 3 -103 43 -3 c47 -3 47 -4 57 -74 l6 -48 45
0 44 0 0 -55 0 -55 40 0 c39 0 40 -1 41 -37 1 -66 11 -78 60 -78 l44 0 3 -54
c2 -30 -2 -59 -8 -65 -6 -6 -34 -13 -63 -16 l-52 -5 -5 -60 -5 -60 -112 -3
-113 -3 0 -44 c0 -65 -7 -75 -50 -75 -71 0 -70 3 -70 -146 l0 -133 50 -7 49
-6 3 -82 3 -81 47 -3 47 -3 7 -50 7 -49 58 0 59 0 0 -85 0 -84 -67 -3 -68 -3
-3 -57 -3 -58 -89 0 c-106 0 -102 5 -98 -140 l3 -95 87 -3 87 -3 3 -57 3 -57
40 0 c37 0 40 -2 43 -30 7 -81 -5 -75 163 -75 l150 0 -3 -57 -3 -58 -41 -9
-41 -8 5 -49 c3 -32 1 -49 -7 -49 -7 0 -11 -20 -11 -53 l0 -54 105 -6 c57 -4
111 -4 119 -1 10 4 16 22 18 52 3 40 6 47 30 53 35 9 38 5 38 -53 l0 -48 55 0
c53 0 55 -1 55 -27 0 -46 -11 -52 -90 -55 l-75 -3 -3 -57 -3 -58 68 0 c37 0
73 -4 79 -8 13 -8 24 -236 12 -248 -4 -4 -25 -10 -45 -13 l-38 -6 -5 -125 -5
-125 -56 -3 c-41 -2 -59 1 -69 13 -7 8 -25 15 -41 15 -34 0 -41 17 -39 107 3
120 7 112 -52 115 l-53 3 -3 110 c-2 72 -7 112 -15 117 -7 4 -33 8 -59 8 l-48
0 0 113 c0 75 -4 117 -12 125 -7 7 -31 12 -55 12 l-43 0 0 -124 0 -124 -61 -4
c-34 -1 -64 1 -67 7 -4 6 -8 63 -9 128 l-3 117 60 0 61 0 -3 58 -3 57 -57 3
-58 3 0 -61 0 -60 -155 0 -155 0 2 58 3 57 -48 3 c-63 4 -77 -8 -77 -69 l0
-48 -47 -3 c-46 -3 -48 -4 -53 -38 -5 -34 -7 -35 -52 -38 -43 -3 -48 -6 -48
-27 0 -31 9 -33 98 -22 57 6 82 5 101 -4 14 -7 35 -16 46 -20 16 -6 15 -7 -10
-9 -16 -1 -53 -2 -81 0 l-51 2 5 -56 4 -56 -56 0 -56 0 0 65 0 66 -57 -3 -58
-3 -5 -55 -5 -55 -50 -5 -50 -5 -3 -57 -3 -58 -42 0 c-24 0 -48 -5 -55 -12 -8
-8 -12 -48 -12 -114 0 -112 -1 -114 -72 -114 l-27 0 -3 -132 -3 -133 -60 -5
-60 -5 0 -360 0 -360 49 -3 c59 -4 66 4 66 76 l0 52 55 0 c50 0 55 2 61 25 3
14 4 32 0 40 -12 32 5 45 55 45 l49 0 0 45 c0 39 3 45 24 51 13 3 32 4 42 3
31 -5 44 10 44 52 l0 39 89 0 c49 0 96 3 105 6 13 5 16 -2 16 -45 l0 -51 55 0
55 0 0 -50 0 -49 58 -3 57 -3 5 -50 5 -50 50 -1 50 -1 5 -56 c3 -30 8 -58 11
-61 10 -10 126 -19 153 -12 24 6 26 10 26 66 l0 60 64 0 c71 0 76 4 76 71 l0
39 60 0 60 0 0 49 c0 46 1 49 31 55 17 3 44 6 60 6 28 0 29 -1 29 -55 l0 -55
55 0 c30 0 55 -3 55 -7 0 -5 27 -6 60 -5 l60 4 0 48 0 49 45 7 45 6 0 58 0 57
53 9 52 9 5 80 5 80 41 3 c41 3 41 3 48 -37 6 -41 7 -41 50 -41 38 0 45 -3 50
-25 4 -14 4 -36 0 -49 -5 -20 -1 -24 27 -30 17 -3 42 -6 55 -6 20 0 24 -5 24
-29 0 -28 1 -29 40 -24 l40 6 0 -42 0 -41 288 3 287 2 3 -52 3 -53 70 0 69 0
0 -50 0 -50 85 0 85 0 1 -27 c1 -16 2 -32 4 -38 1 -5 3 -16 3 -22 2 -10 29
-13 102 -13 l100 0 0 -77 c0 -115 3 -121 59 -125 l46 -3 3 -52 3 -53 50 0 49
0 0 -34 c0 -58 7 -66 61 -66 l49 0 0 -39 c0 -64 6 -71 61 -71 l49 0 0 -49 c0
-55 7 -61 75 -61 l44 0 7 50 7 50 48 6 48 6 7 54 6 54 49 0 49 0 0 49 0 50 48
3 47 3 3 48 3 47 50 0 49 0 0 45 0 45 38 2 c20 0 43 1 50 1 8 -1 12 17 12 58
l0 59 54 0 55 0 3 48 3 47 45 0 45 0 3 47 c3 52 -2 49 92 52 23 1 25 5 28 54
l3 52 245 1 c134 1 250 2 257 3 6 0 13 18 15 39 3 36 4 37 43 37 35 0 39 3 39
25 0 24 3 25 59 25 l60 0 3 53 3 52 53 3 52 3 0 40 0 40 42 -3 c49 -3 55 -16
57 -112 1 -49 3 -57 17 -52 9 4 32 4 50 0 l34 -6 0 -64 0 -64 50 0 50 0 0 -36
c0 -54 15 -74 55 -74 30 0 35 -4 46 -37 7 -21 15 -92 18 -158 l6 -120 60 0 60
0 3 112 c3 108 2 112 -20 119 -30 9 -38 22 -38 62 0 31 1 32 44 32 41 0 44 2
50 31 3 17 6 42 6 55 0 22 4 23 68 26 l67 3 -4 143 c-3 115 -1 142 10 143 8 1
32 2 54 3 l40 1 3 53 c2 40 7 52 20 53 17 2 67 1 90 0 8 -1 12 -23 12 -73 0
-40 4 -78 8 -85 4 -6 25 -13 47 -15 l40 -3 3 -162 2 -163 -62 0 c-35 0 -80 -3
-100 -6 l-38 -7 0 56 c0 31 -4 58 -9 61 -5 3 -30 3 -55 0 l-46 -7 0 -53 0 -54
55 0 55 0 0 -39 c0 -69 3 -71 96 -71 l84 0 0 -59 c0 -65 6 -71 81 -71 48 0 59
15 59 76 l0 53 53 3 52 3 3 53 3 52 60 0 59 0 0 51 0 51 53 -4 52 -3 9 48 9
47 79 0 c103 0 118 8 118 65 l0 45 -105 0 -105 0 0 -45 c0 -38 -3 -45 -23 -50
-13 -4 -37 -5 -53 -3 -28 3 -29 1 -32 -44 l-3 -47 -57 -3 -57 -3 -3 -47 -3
-48 -50 0 -49 0 0 160 0 160 45 0 45 0 0 90 0 90 65 0 65 0 0 45 0 45 55 0 55
0 0 -100 0 -100 35 0 35 0 1 123 c1 67 2 127 4 132 1 6 3 16 3 23 1 8 21 12
60 12 l58 0 0 -42 c0 -24 0 -82 2 -130 l2 -87 53 -3 52 -3 3 -57 3 -57 47 -3
47 -3 3 -97 3 -98 -35 0 c-19 0 -41 -3 -50 -6 -13 -5 -16 2 -16 45 l0 51 -50
0 -50 0 0 -50 0 -50 45 0 c48 0 51 -4 57 -75 3 -28 5 -30 48 -30 l45 0 3 -52
3 -52 62 -3 62 -3 5 -60 5 -60 50 0 50 0 3 363 2 362 -60 0 c-33 0 -60 -4 -60
-10 0 -5 -3 -10 -7 -10 -5 0 -7 64 -5 142 3 158 4 158 -65 158 l-43 0 0 109
c0 120 -1 121 -66 121 l-34 0 0 60 0 60 -50 0 -50 0 0 44 c0 70 -5 76 -66 76
l-54 0 0 -65 0 -64 -34 -6 c-64 -12 -71 -7 -74 63 -3 61 -3 62 -32 62 -35 0
-60 9 -60 22 0 7 35 8 100 3 l100 -7 0 25 c0 24 -4 26 -47 29 -46 3 -48 4 -53
38 -5 34 -7 35 -52 38 l-48 3 0 48 c0 26 -5 52 -12 59 -7 7 -34 12 -60 12
l-48 0 0 -60 0 -60 55 0 55 0 0 -52 0 -53 -50 0 c-49 0 -50 1 -50 30 0 16 -3
40 -6 53 -6 22 -9 22 -165 22 l-158 0 -3 58 -3 57 -43 3 c-58 4 -72 -10 -72
-69 l0 -49 -44 0 c-69 0 -76 -13 -76 -141 l0 -109 -44 0 c-25 0 -48 -5 -51
-10 -4 -6 -9 -35 -12 -65 l-6 -54 -46 -3 -46 -3 -3 -45 c-4 -51 -13 -60 -64
-60 l-38 0 0 -114 c0 -74 -4 -117 -11 -122 -6 -4 -51 -9 -100 -12 -71 -4 -89
-2 -90 9 -1 8 0 63 1 122 2 126 -3 137 -66 137 l-44 0 0 124 0 125 58 6 c85
10 83 8 80 67 l-3 53 -67 3 -68 3 0 39 0 39 53 3 52 3 5 50 c5 48 6 50 38 53
l32 3 0 -54 c0 -48 3 -55 23 -61 29 -8 95 -7 180 1 l67 6 0 53 c0 29 -4 55 -9
58 -5 3 -7 24 -4 45 6 46 -12 61 -68 58 -28 -2 -35 2 -43 24 -5 14 -6 42 -2
62 l7 37 187 2 187 3 3 48 3 47 48 0 c54 0 61 9 61 82 l0 37 58 3 57 3 0 115
0 115 -65 0 -65 0 -3 -111 -3 -112 -44 -7 c-25 -3 -49 -4 -54 0 -15 9 -29 -26
-24 -62 4 -30 2 -33 -24 -34 -15 -1 -98 -4 -183 -8 l-155 -6 -3 -52 -3 -53
-52 0 -52 0 4 48 c2 26 8 50 15 54 6 4 -11 8 -38 8 l-49 0 7 77 c3 42 6 116 6
165 l0 88 29 0 c28 0 29 2 33 50 2 35 -1 51 -10 55 -8 3 -57 5 -109 5 l-96 0
5 255 c3 140 8 258 11 262 4 3 49 9 99 12 l93 6 3 48 3 47 130 0 129 0 0 60 0
60 170 0 170 0 0 -63 0 -64 -53 5 -54 4 -6 -113 c-4 -63 -7 -138 -7 -166 l0
-53 -55 0 -55 0 0 -50 0 -50 -45 0 -45 0 0 -45 0 -45 -90 0 -90 0 0 -60 0 -60
133 0 c72 0 139 -5 147 -10 8 -5 10 -10 4 -10 -6 0 -9 -13 -6 -30 6 -44 19
-37 27 16 5 36 3 48 -10 58 -13 9 -15 27 -13 91 l3 80 55 5 c55 5 55 5 57 40
1 19 2 41 2 48 1 8 18 12 51 12 l50 0 0 78 c0 42 4 83 9 90 5 8 24 13 47 12
22 -1 45 -2 52 -1 9 1 12 36 12 141 l0 140 -60 0 -60 0 0 60 0 60 -115 0 -115
0 0 54 c0 61 -8 71 -67 81 -52 8 -59 19 -55 84 l4 51 45 0 45 0 -4 53 -3 52
43 3 c36 3 42 6 42 26 0 13 3 37 6 54 6 29 10 31 53 34 l46 3 5 55 5 55 48 3
47 3 0 105 0 104 50 0 50 0 0 216 0 215 -52 -3 -53 -3 -3 -205 c-2 -148 -6
-206 -15 -212 -6 -4 -29 -8 -49 -8 l-37 0 -3 -102 -3 -103 -47 -3 -48 -3 0
-60 c0 -56 -1 -60 -22 -58 -13 1 -83 1 -155 1 l-133 -2 0 -49 c0 -28 -5 -53
-10 -56 -6 -4 -54 -4 -105 0 l-95 7 0 60 0 60 -105 -7 -105 -7 0 61 0 61 -45
0 c-45 0 -45 0 -45 34 0 58 -7 66 -60 66 l-47 0 -7 53 c-3 28 -6 71 -6 95 l0
42 -50 0 -50 0 0 50 0 50 -50 0 -50 0 0 50 0 50 45 0 45 0 0 60 0 60 135 0
135 0 0 60 0 60 -184 0 c-207 0 -208 0 -204 -71 l3 -44 -52 -3 -53 -3 0 60 0
61 -145 0 -145 0 0 38 c0 75 -5 81 -74 84 l-61 3 -5 55 -5 55 -85 1 c-47 1
-90 2 -97 3 -7 0 -13 22 -15 54 l-3 52 -42 3 c-52 4 -58 17 -48 119 4 40 4 96
0 123 l-7 50 -49 0 -49 0 0 44 c0 68 -6 76 -56 76 l-44 0 0 -60 0 -60 45 0 46
0 -3 -97 -3 -98 -50 0 -50 0 -3 -47 -3 -48 -95 0 -94 0 0 -60 0 -61 75 7 c79
7 80 6 75 -39 -1 -17 6 -18 77 -16 l78 2 0 -30 1 -30 -71 -6 c-38 -3 -214 -5
-390 -5 -176 0 -346 -1 -377 -1 l-58 -1 0 -50 0 -50 -145 0 -145 0 0 50 0 50
34 0 c39 0 46 11 46 75 0 42 -2 44 -34 50 -62 12 -81 4 -84 -35 -6 -79 -6 -79
-80 -82 l-67 -3 -3 -57 -3 -58 61 0 c57 0 60 -1 60 -24 0 -13 3 -38 6 -55 l7
-31 173 0 174 0 0 55 0 55 455 0 455 0 0 -55 0 -55 155 0 155 0 0 -44 0 -44
110 5 110 4 0 -30 0 -31 59 0 60 0 3 -52 3 -53 48 0 48 0 -3 -50 -3 -50 -100
1 -100 0 -3 47 -3 47 -60 0 -59 0 0 45 0 45 -59 0 c-54 0 -60 2 -63 23 -3 22
-4 22 -205 25 l-203 2 0 45 0 45 -213 0 c-118 0 -269 3 -335 7 l-122 6 0 -51
c0 -61 24 -54 -215 -56 -158 -1 -160 -1 -163 -23 -3 -21 -9 -23 -63 -23 l-59
0 0 -45 0 -45 -60 0 -60 0 0 -44 0 -44 -190 -7 -190 -7 0 -54 0 -54 -54 0 -55
0 -3 -37 -3 -36 -131 2 -131 2 -6 -53 c-4 -29 -7 -77 -7 -107 l0 -54 -145 7
-145 7 0 -60 c0 -60 0 -61 -28 -61 -16 0 -63 -3 -105 -6 l-77 -7 0 51 c0 28
-3 53 -8 56 -4 2 -69 6 -145 8 l-137 3 0 58 c0 61 3 58 -65 61 l-30 1 -3 103
-3 102 -49 0 -50 0 0 215 0 215 -40 0 -40 0 2 218 c3 206 4 217 22 214 10 -2
29 -1 42 2 23 6 24 10 24 94 l0 88 48 0 47 -1 3 118 3 117 39 0 40 0 0 65 0
65 40 0 c39 0 40 -1 40 -34 0 -18 3 -48 6 -65 6 -30 9 -31 55 -31 l49 0 0
-119 0 -120 53 -3 52 -3 1 -80 c1 -44 2 -104 3 -132 l1 -53 50 0 50 0 0 -34
c0 -18 3 -48 6 -65 6 -31 8 -32 53 -29 l46 3 3 53 c4 65 -8 82 -59 82 l-38 0
-3 128 -3 127 -50 5 -50 5 -3 104 c-1 58 -8 111 -14 118 -6 7 -30 13 -54 13
l-43 0 -3 63 -3 62 -47 3 -48 3 0 55 0 54 -49 0 -50 0 -3 -52z m2652 -1247 l0
-60 38 -3 c37 -3 37 -3 42 -53 4 -42 8 -50 28 -53 21 -3 22 -7 22 -103 l0 -99
28 -1 c15 0 40 -2 56 -2 l29 -2 -4 -75 c-2 -41 -3 -103 -2 -137 l2 -63 -60 0
-59 0 0 -55 0 -55 40 0 c22 0 43 0 48 -1 4 0 8 6 9 13 12 90 11 88 53 88 l38
0 7 100 c5 63 12 100 19 100 21 1 241 2 323 1 l82 -1 3 -47 3 -48 68 -3 c72
-3 73 -5 58 -60 l-10 -32 50 0 49 0 0 39 c0 33 -4 40 -22 44 -21 4 -20 4 3 6
25 1 27 -2 33 -56 3 -32 10 -78 14 -103 l7 -45 65 0 c112 -1 105 2 102 -60
l-4 -55 55 0 54 0 7 -52 c3 -29 6 -79 6 -110 l0 -58 45 0 45 0 0 -60 0 -60 45
0 45 0 0 -55 0 -55 78 0 c43 0 81 -2 84 -5 2 -3 2 -24 -1 -47 -6 -39 -9 -43
-44 -51 -42 -10 -45 -28 -6 -34 49 -7 49 -7 49 -118 l0 -105 41 0 40 0 -3
-162 -3 -163 -37 -3 c-33 -3 -38 -7 -43 -36 -4 -17 -5 -50 -3 -71 l3 -40 88
-3 87 -3 0 -39 0 -39 48 -3 47 -3 0 -160 0 -160 -50 -5 -50 -5 -3 -57 -3 -57
-89 2 -90 2 0 -52 0 -53 46 0 47 0 -7 -31 c-3 -17 -6 -40 -6 -50 0 -16 -8 -19
-50 -19 l-50 0 0 -45 0 -45 -97 0 c-67 0 -93 3 -83 10 8 5 10 10 4 10 -6 0
-11 10 -10 23 1 21 5 22 61 19 33 -1 74 2 90 7 23 7 9 9 -67 10 -91 1 -98 0
-99 -19 -1 -11 -3 -24 -4 -30 -1 -5 -3 -17 -4 -25 -1 -12 -18 -15 -91 -15
l-89 0 -3 -62 -3 -63 -157 -3 -158 -3 0 -54 0 -55 -227 -2 -228 -3 -3 -56 -3
-56 -564 1 -565 1 0 58 0 57 -216 0 c-214 0 -215 0 -209 21 4 11 4 36 1 55
l-7 34 -162 2 -162 3 -5 60 -5 60 -77 3 -77 3 -7 44 -6 45 -42 -1 c-35 0 -37
-2 -18 -9 12 -5 22 -13 22 -18 0 -4 9 -18 19 -29 l20 -21 -77 -4 c-108 -6
-122 -2 -122 32 0 17 7 30 17 34 29 11 -5 26 -59 26 l-48 0 0 49 0 50 48 3 47
3 3 53 3 53 -103 -2 -103 -2 -3 57 -3 56 -44 0 -45 0 0 115 0 115 -51 0 -51 0
4 -55 3 -55 -56 0 -56 0 5 55 4 55 -93 0 c-52 0 -118 3 -146 6 l-53 7 0 38 c0
37 1 38 43 42 23 2 1 4 -49 5 l-91 2 -6 112 c-3 61 -4 115 -1 120 3 4 34 8 70
8 l64 0 0 50 c0 28 5 50 10 50 6 0 10 -7 10 -15 0 -9 6 -12 17 -8 12 5 14 3 7
-8 -5 -8 -9 -26 -10 -40 -1 -26 0 -26 60 -27 33 0 53 2 43 5 -11 3 -16 11 -13
19 7 17 -6 18 -22 2 -19 -19 -58 -16 -58 4 0 10 6 18 12 18 6 0 11 8 10 18 -1
15 11 18 94 22 l95 5 3 58 3 57 -71 0 -70 0 0 45 0 45 -45 0 -45 0 0 50 0 50
-75 0 -75 0 -1 103 c-1 56 -1 117 0 136 2 18 0 54 -4 78 l-6 44 -42 -3 -42 -3
-3 48 -3 47 165 0 165 0 3 -57 3 -58 123 -3 122 -3 0 -49 0 -50 55 0 55 0 0
-60 0 -60 50 0 50 0 0 -205 0 -205 -34 0 c-18 0 -47 -3 -64 -6 -27 -5 -31 -11
-34 -48 -3 -26 0 -45 9 -51 9 -7 13 -46 15 -125 3 -113 3 -115 27 -118 13 -2
38 -1 56 2 l32 6 1 138 c1 75 5 246 8 380 l7 242 43 0 44 0 0 80 0 80 40 0
c36 0 40 2 32 18 -5 9 -6 26 -1 37 4 11 8 55 8 98 l1 77 55 0 55 0 0 44 c0 26
6 48 15 56 10 8 15 31 15 66 l0 54 40 0 39 0 7 60 7 60 118 0 119 0 0 49 c0
56 7 61 77 61 l45 0 -4 43 -3 42 53 3 c28 2 53 7 53 13 1 5 3 14 4 19 1 6 3
16 4 23 1 9 27 13 91 14 63 2 97 7 113 18 17 12 54 15 184 15 l163 0 0 53 c0
31 7 68 17 88 l17 34 10 -42 9 -43 53 0 53 0 3 68 3 67 45 5 45 5 0 83 0 82
58 0 57 0 0 60 0 60 110 0 110 0 0 -59z m1447 -973 c-3 -8 -6 -5 -6 6 -1 11 2
17 5 13 3 -3 4 -12 1 -19z m-4224 -315 c-7 -2 -21 -2 -30 0 -10 3 -4 5 12 5
17 0 24 -2 18 -5z m5376 -110 c1 -21 -4 -23 -44 -23 -32 0 -45 4 -45 14 0 8 8
17 18 20 9 3 26 17 37 30 20 23 20 23 27 2 3 -11 6 -31 7 -43z m-4841 -1244
c-3 -8 -7 -3 -11 10 -4 17 -3 21 5 13 5 -5 8 -16 6 -23z m4239 -11 c-3 -7 -5
-2 -5 12 0 14 2 19 5 13 2 -7 2 -19 0 -25z m-4247 -34 c0 -8 -4 -12 -10 -9 -5
3 -10 10 -10 16 0 5 5 9 10 9 6 0 10 -7 10 -16z m17 -6 c-3 -8 -6 -5 -6 6 -1
11 2 17 5 13 3 -3 4 -12 1 -19z m-64 5 c-7 -2 -19 -2 -25 0 -7 3 -2 5 12 5 14
0 19 -2 13 -5z m4490 -10 c-7 -2 -21 -2 -30 0 -10 3 -4 5 12 5 17 0 24 -2 18
-5z m-5323 -151 c0 -27 -2 -51 -4 -53 -2 -2 -27 -2 -55 -1 l-51 4 0 42 c0 24
3 46 7 49 3 4 28 7 55 7 l48 0 0 -48z m5780 -77 l0 -125 -60 0 -60 0 0 125 0
125 60 0 60 0 0 -125z m-5210 -245 l0 -110 -58 0 -59 0 -1 102 c0 57 2 106 4
110 3 5 30 8 60 8 l54 0 0 -110z m5080 1 l0 -108 -89 -7 c-114 -8 -122 -5
-119 50 l3 43 53 7 52 6 0 59 0 59 50 0 50 0 0 -109z m-5980 19 l0 -80 -55 0
-55 0 0 -35 0 -35 -50 0 -50 0 0 54 0 55 53 3 52 3 3 58 3 57 49 0 50 0 0 -80z
m6860 20 l0 -60 49 0 c55 0 61 -8 53 -72 l-4 -38 -49 0 -49 0 0 38 0 37 -50
-3 -50 -4 -1 34 c0 18 -2 54 -4 81 l-4 47 54 0 55 0 0 -60z m-4783 -138 c6 -4
13 -28 15 -52 l3 -45 50 -1 c28 -1 173 -2 323 -3 l272 -1 0 -50 0 -50 568 2
567 3 -2 48 -1 47 366 0 c325 -1 365 -2 348 -15 -12 -9 -42 -15 -78 -15 l-58
0 0 -40 c0 -22 -3 -40 -8 -40 -4 0 -6 -18 -4 -41 l4 -41 -53 3 c-54 3 -54 3
-54 -26 l0 -30 -72 -3 -73 -3 0 -31 0 -30 -152 3 c-84 1 -179 2 -210 1 l-58
-2 0 -45 0 -45 -100 0 -100 0 0 -49 0 -49 155 -7 155 -7 1 -32 c2 -29 2 -29 6
-4 3 20 11 28 31 31 24 4 24 4 -5 6 -31 1 -33 3 -33 36 l0 35 68 0 c38 0 110
3 160 6 89 7 91 8 94 33 l3 26 105 -2 c58 -2 133 -5 168 -9 l62 -6 -4 -46 c-3
-26 -5 -51 -5 -55 -1 -5 -41 -7 -91 -4 -63 3 -90 1 -91 -7 0 -6 -4 -2 -9 9 -7
17 -9 17 -9 3 -1 -16 -13 -18 -112 -18 l-111 0 4 -50 3 -50 -802 -2 c-442 -1
-824 -2 -850 -3 l-48 0 -3 51 -3 51 -132 6 c-132 5 -197 20 -197 44 0 18 -10
16 -26 -4 -12 -16 -12 -16 -7 5 3 12 9 22 13 22 4 0 10 9 13 20 4 17 0 21 -26
20 -18 0 -77 4 -132 8 l-100 7 -3 93 -3 92 146 0 145 0 0 34 c0 19 -3 37 -7
39 -5 2 -43 1 -86 -2 -56 -4 -82 -3 -89 6 -6 7 -23 10 -41 7 -22 -4 -28 -3
-19 4 8 5 13 12 13 16 -3 21 2 26 27 27 25 0 25 1 6 9 -18 7 -23 19 -26 62 -2
30 1 56 7 60 6 5 1 8 -10 9 l-20 0 20 9 c11 5 14 9 8 9 -7 1 -13 6 -13 11 0
12 189 14 207 2z m-1067 -72 l0 -50 -49 0 -49 0 -4 43 c-3 23 -3 45 -1 50 2 4
26 7 54 7 l49 0 0 -50z m4770 23 c0 -16 3 -38 6 -51 6 -22 5 -23 -52 -20 l-59
3 -3 48 -3 47 55 0 c54 0 56 -1 56 -27z m-3943 -169 c-3 -3 -12 -4 -19 -1 -8
3 -5 6 6 6 11 1 17 -2 13 -5z m-1814 -71 c4 -38 7 -103 7 -145 l0 -78 35 0 35
0 0 100 0 100 60 0 60 0 0 -45 0 -45 60 0 60 0 0 -135 0 -135 44 0 45 0 3
-112 c2 -62 3 -114 3 -114 0 -1 -23 -4 -52 -8 l-52 -7 -3 53 -3 53 -57 3 -58
3 0 49 0 49 -50 -6 -50 -6 0 52 0 51 -115 0 -115 0 0 -49 0 -50 -52 -3 -53 -3
-3 -43 -3 -43 -42 3 -42 3 -3 98 -3 97 51 0 50 0 0 60 0 60 55 0 55 0 2 88 c2
48 2 106 2 130 l0 42 61 0 62 0 6 -67z m4807 -60 c0 -35 -3 -44 -10 -33 -6 10
-10 11 -10 3 0 -8 -13 -13 -29 -13 -28 0 -30 -2 -33 -47 l-3 -48 -57 -2 -58
-1 0 57 c0 43 5 64 19 80 14 16 21 18 24 9 3 -7 6 -2 6 10 1 23 4 24 61 20 33
-1 60 0 60 5 0 4 7 7 15 7 11 0 15 -12 15 -47z m-4033 -168 c3 -206 -2 -183
41 -187 36 -3 37 -4 40 -44 3 -39 1 -42 -29 -48 -17 -3 -42 -6 -55 -6 -22 0
-24 -4 -24 -50 l0 -50 -57 0 c-96 0 -103 -5 -103 -62 0 -46 -2 -49 -22 -46
-23 3 -23 3 -26 221 l-2 217 60 0 60 0 0 85 0 86 58 -3 57 -3 2 -110z m5023
-72 l5 -102 -43 -6 c-24 -4 -46 -5 -48 -2 -3 2 -7 49 -11 105 -7 111 -8 108
62 107 l30 0 5 -102z m-4809 50 c1 -27 3 -59 5 -73 2 -14 1 -39 -1 -56 -5 -30
-7 -31 -65 -33 l-60 -2 0 105 0 106 60 0 60 0 1 -47z m1882 -290 c4 -3 2 -12
-4 -20 -8 -9 -8 -13 -1 -13 6 0 12 -15 14 -32 l3 -33 435 0 435 0 3 53 3 52
39 0 c42 0 46 -5 52 -75 3 -28 6 -30 51 -33 33 -2 47 -7 47 -18 0 -7 5 -14 10
-14 6 0 10 -13 10 -29 0 -28 -2 -29 -75 -40 -42 -6 -89 -11 -105 -11 l-30 0 0
-94 0 -95 -35 6 c-32 5 -35 4 -35 -20 0 -41 -24 -57 -87 -57 l-56 0 7 -60 7
-60 -50 0 -50 0 -3 53 -3 52 -163 3 c-139 2 -164 5 -169 19 -4 9 1 21 12 29
18 13 18 14 1 14 -12 0 -16 5 -12 16 3 9 6 22 6 29 0 8 8 12 20 10 11 -2 22 0
25 5 7 11 -66 24 -74 12 -3 -5 -23 -12 -43 -15 -36 -5 -38 -4 -38 22 0 15 -5
53 -11 83 l-11 55 -67 7 c-36 3 -100 6 -141 6 l-75 0 0 85 0 85 35 0 c24 0 31
3 21 9 -11 7 -9 10 10 14 39 7 85 7 92 0z m4287 -32 l0 -38 -52 -6 c-59 -5
-63 -4 -55 18 5 12 11 13 30 4 33 -15 67 3 67 36 0 14 2 25 5 25 3 0 5 -17 5
-39z m-4413 23 c-3 -3 -12 -4 -19 -1 -8 3 -5 6 6 6 11 1 17 -2 13 -5z m-3097
-66 c0 -11 -12 -10 -30 2 -12 7 -10 9 8 7 12 0 22 -5 22 -9z"/>
<path d="M4647 7004 c-4 -4 -7 -29 -7 -55 l0 -47 50 -4 51 -3 -3 55 -3 55 -40
3 c-23 2 -44 0 -48 -4z"/>
<path d="M4850 6839 l0 -60 48 3 c26 2 46 6 45 11 -2 4 -3 30 -3 57 l0 50 -45
0 -45 0 0 -61z"/>
<path d="M5197 6893 c-4 -3 -7 -30 -7 -59 l0 -53 -117 -3 -118 -3 1 -70 c1
-38 2 -87 3 -107 l1 -38 104 0 105 0 3 53 3 52 55 5 55 5 3 113 3 112 -44 0
c-24 0 -47 -3 -50 -7z"/>
<path d="M3757 6353 c-4 -3 -7 -30 -7 -60 0 -59 4 -56 -92 -56 l-38 0 0 -46
c0 -81 -6 -91 -56 -91 l-44 0 0 -295 0 -295 49 0 c54 0 61 -8 61 -66 l0 -34
65 0 c64 0 65 0 65 -27 0 -16 3 -38 6 -50 6 -23 8 -23 194 -23 l188 0 7 50 7
50 98 0 99 0 7 45 c3 25 3 56 0 70 -6 24 -5 25 44 25 l50 0 0 275 0 275 -45 0
-45 0 0 70 0 70 -65 0 -65 0 0 60 0 60 -238 0 c-131 0 -242 -3 -245 -7z m232
-139 l31 -6 0 -144 0 -144 -155 0 -155 0 0 95 0 95 50 0 50 0 0 49 0 50 48 4
c91 7 100 7 131 1z m-195 -560 c4 -14 4 -53 0 -85 l-7 -60 -56 3 -56 3 -3 69
c-2 38 -1 75 2 83 4 9 23 13 60 13 50 0 54 -2 60 -26z m426 -89 l0 -55 -50 0
-50 0 0 48 c0 27 3 52 7 55 3 4 26 7 50 7 l43 0 0 -55z"/>
<path d="M5767 6353 c-4 -3 -7 -33 -7 -66 l0 -59 -55 4 -54 5 -3 -66 -3 -66
-47 -3 -48 -3 0 -270 0 -269 55 0 55 0 0 -75 0 -75 84 0 85 0 3 -47 3 -48 227
-3 227 -2 3 47 3 48 48 0 c41 0 47 3 47 21 0 12 3 36 6 53 6 31 7 31 69 31
l63 0 -1 293 c0 173 -4 295 -10 298 -5 4 -27 4 -47 2 -32 -5 -39 -2 -45 16 -3
11 -3 30 0 41 4 11 4 34 0 50 -6 28 -9 30 -56 30 l-49 0 0 60 0 60 -273 0
c-151 0 -277 -3 -280 -7z m247 -165 c8 -30 8 -183 0 -230 l-7 -38 -133 0 -134
0 0 145 0 145 134 0 c130 0 134 -1 140 -22z m-172 -528 c-12 -5 -30 -6 -39 -3
-11 4 -14 3 -9 -5 4 -8 0 -12 -11 -12 -12 0 -19 -8 -20 -21 -2 -22 6 -22 75
-3 22 6 23 5 20 -41 l-3 -47 -52 -2 -53 -3 0 73 0 74 58 -1 c44 0 52 -2 34 -9z
m412 -46 c12 -4 16 -20 16 -55 l0 -49 -55 0 -55 0 0 49 c0 46 2 50 28 54 47 7
50 7 66 1z"/>
<path d="M5842 5585 c0 -16 2 -22 5 -12 2 9 2 23 0 30 -3 6 -5 -1 -5 -18z"/>
<path d="M2523 6180 c0 -25 2 -35 4 -22 2 12 2 32 0 45 -2 12 -4 2 -4 -23z"/>
<path d="M4660 5370 l0 -60 95 0 95 0 0 60 0 60 -95 0 -95 0 0 -60z"/>
<path d="M5187 5424 c-4 -4 -7 -31 -7 -61 l0 -54 103 3 102 3 0 55 0 55 -95 3
c-53 1 -99 0 -103 -4z"/>
<path d="M6414 5285 c-3 -7 -4 -30 -2 -51 l3 -39 63 -3 62 -3 0 51 c0 48 -1
50 -27 51 -16 1 -43 3 -61 5 -20 1 -35 -3 -38 -11z"/>
<path d="M3520 5240 l0 -51 68 3 67 3 3 48 3 47 -70 0 -71 0 0 -50z"/>
<path d="M4230 5135 l0 -54 63 -3 62 -3 3 -57 3 -58 124 0 125 0 0 -55 0 -55
65 0 c71 0 68 -4 69 75 l1 30 280 0 280 0 3 -53 3 -53 72 3 72 3 3 53 3 52
119 0 119 0 3 58 3 57 63 3 62 3 0 54 0 55 -65 0 -65 0 0 -55 0 -55 -491 0
-491 0 2 -42 c3 -69 4 -68 -45 -68 l-45 0 0 55 0 55 -133 0 -134 0 5 55 4 55
-71 0 -71 0 0 -55z"/>
<path d="M3771 4304 c0 -11 3 -14 6 -6 3 7 2 16 -1 19 -3 4 -6 -2 -5 -13z"/>
<path d="M3596 4201 c5 -5 23 -12 39 -16 l30 -6 -25 15 c-28 17 -60 22 -44 7z"/>
<path d="M3900 4135 l0 -45 59 0 59 0 4 39 c4 45 -5 51 -79 51 l-43 0 0 -45z"/>
<path d="M3691 4064 c0 -11 3 -14 6 -6 3 7 2 16 -1 19 -3 4 -6 -2 -5 -13z"/>
<path d="M4006 4023 c-8 -8 9 -83 20 -87 25 -10 73 6 79 25 13 39 -3 57 -51
61 -25 2 -46 2 -48 1z"/>
<path d="M3750 3940 c-9 -6 -10 -10 -3 -10 6 0 15 5 18 10 8 12 4 12 -15 0z"/>
<path d="M5690 3775 c0 -8 2 -15 4 -15 2 0 6 7 10 15 3 8 1 15 -4 15 -6 0 -10
-7 -10 -15z"/>
<path d="M6481 4044 c0 -11 3 -14 6 -6 3 7 2 16 -1 19 -3 4 -6 -2 -5 -13z"/>
<path d="M6411 3971 c1 -20 3 -21 6 -7 4 15 7 16 14 5 7 -11 9 -9 9 7 0 12 -6
21 -15 21 -10 0 -15 -9 -14 -26z"/>
<path d="M4576 3494 c-11 -8 -16 -14 -10 -14 13 0 39 18 34 24 -3 2 -14 -2
-24 -10z"/>
<path d="M4940 3150 c0 -5 5 -10 11 -10 5 0 7 5 4 10 -3 6 -8 10 -11 10 -2 0
-4 -4 -4 -10z"/>
<path d="M4839 8948 c0 -7 0 -32 1 -55 l1 -42 -53 -3 -53 -3 -3 -57 -3 -57
-52 -3 -52 -3 -3 -50 c-4 -57 -12 -65 -69 -65 l-43 0 0 -145 0 -145 -24 0
c-49 0 -56 -9 -56 -66 l0 -54 60 0 60 0 0 54 0 54 90 8 90 7 0 48 0 49 -55 0
-56 0 3 98 3 97 53 3 52 3 0 54 0 54 53 3 52 3 3 53 3 52 50 0 49 0 0 60 0 60
-50 0 c-33 0 -50 -4 -51 -12z"/>
<path d="M5167 8953 c-2 -5 -2 -29 1 -55 l4 -48 44 0 44 0 0 -60 0 -60 56 0
57 0 -7 31 c-3 17 -6 69 -6 115 l0 84 -94 0 c-52 0 -97 -3 -99 -7z"/>
<path d="M7478 8908 l-3 -53 -45 -5 -45 -5 -5 -60 -5 -60 -50 -5 -50 -5 -3
-117 -3 -117 -57 -3 -57 -3 -3 -127 -3 -127 -42 -3 -42 -3 -5 -60 -5 -60 -50
-7 c-27 -3 -80 -7 -117 -7 l-68 -1 0 -55 0 -55 120 0 120 0 0 55 0 55 50 0 50
0 0 65 0 65 55 0 55 0 0 135 0 135 55 0 55 0 0 120 0 120 56 0 55 0 -2 63 -3
62 47 3 47 3 0 -43 c0 -78 7 -88 56 -88 43 0 44 -1 44 -32 1 -18 1 -70 2 -115
l1 -82 37 -6 c20 -3 43 -5 51 -3 11 2 15 -15 17 -84 l3 -88 54 0 55 0 0 90 0
90 -50 0 -50 0 -1 68 c-1 37 0 79 1 94 3 56 -7 68 -60 68 l-49 0 -3 63 -3 62
-47 3 -47 3 -3 52 -3 52 -52 3 -52 3 -3 -53z"/>
<path d="M5080 8401 c0 -5 9 -28 20 -52 11 -24 20 -38 20 -31 0 7 11 16 23 21
20 8 23 15 19 40 -4 29 -7 31 -43 31 -22 0 -39 -4 -39 -9z"/>
<path d="M5138 8313 c7 -3 16 -2 19 1 4 3 -2 6 -13 5 -11 0 -14 -3 -6 -6z"/>
<path d="M7934 8303 c-20 -4 -21 -11 -26 -199 -3 -108 -3 -204 -1 -215 7 -25
87 -28 97 -3 3 9 6 105 6 214 0 224 2 219 -76 203z"/>
<path d="M3040 8028 l0 -58 120 0 121 0 -3 58 -3 57 -117 0 -118 0 0 -57z"/>
<path d="M3290 7908 l0 -61 154 6 c180 7 166 19 166 -130 l0 -93 -50 0 -50 0
0 -50 0 -50 -45 0 -45 0 0 -64 0 -63 48 1 47 1 5 55 5 55 40 0 c28 0 40 5 42
15 12 90 11 90 53 90 42 0 45 4 43 75 0 25 14 35 50 35 31 0 35 -6 39 -70 l4
-45 57 -3 57 -3 0 56 0 55 65 0 65 0 0 40 c0 22 4 40 9 40 14 0 31 -26 23 -36
-4 -4 0 -3 9 4 9 6 19 9 22 6 10 -10 18 58 15 126 -3 72 -10 78 -73 66 -35 -7
-43 -19 -47 -73 -4 -54 -27 -39 -30 20 l-3 52 -80 0 -80 0 -5 -60 -5 -60 -47
-3 -48 -3 0 50 c0 86 13 81 -211 81 l-199 0 0 -62z m610 -118 c0 -27 -4 -50
-9 -50 -5 0 -23 -3 -40 -6 l-31 -6 0 56 0 56 40 0 40 0 0 -50z"/>
<path d="M7040 6200 c0 -5 5 -10 10 -10 6 0 10 5 10 10 0 6 -4 10 -10 10 -5 0
-10 -4 -10 -10z"/>
<path d="M6988 6163 c6 -2 18 -2 25 0 6 3 1 5 -13 5 -14 0 -19 -2 -12 -5z"/>
<path d="M7622 5764 c-6 -3 -10 -9 -7 -14 3 -4 6 -28 6 -54 l2 -46 69 0 69 0
-3 58 -3 57 -60 2 c-33 1 -66 -1 -73 -3z"/>
<path d="M2067 5143 c-3 -5 -7 -42 -8 -83 l-4 -75 145 0 145 0 0 80 0 80 -137
3 c-75 1 -139 -1 -141 -5z"/>
<path d="M7854 5143 c-19 -4 -22 -12 -26 -76 -3 -40 -3 -75 -1 -79 5 -10 285
-10 298 0 6 4 9 40 7 85 l-4 77 -126 -1 c-70 -1 -137 -4 -148 -6z"/>
<path d="M2827 3421 c-3 -13 -19 -21 -53 -27 l-49 -9 -3 -112 c-3 -126 2 -119
-87 -125 l-40 -3 -3 -297 -2 -298 110 0 109 0 7 50 7 50 48 0 48 0 3 -52 3
-53 62 -3 c61 -3 62 -3 68 -35 3 -18 5 -81 3 -142 l-3 -110 -43 -3 c-35 -3
-45 -8 -52 -28 -11 -28 -14 -303 -4 -328 4 -11 19 -16 45 -16 l39 0 0 -144 0
-145 48 -3 47 -3 0 -47 c-1 -27 -2 -104 -3 -172 l-2 -125 -47 -3 -48 -3 -3
-62 -3 -63 46 0 45 0 0 -44 c0 -83 -46 -76 499 -76 267 0 509 3 538 6 l52 7 3
56 3 56 48 3 47 3 0 45 0 44 734 0 c808 0 746 5 746 -61 0 -28 1 -29 55 -29
l54 0 3 -62 3 -63 533 -3 532 -2 0 65 0 65 585 0 585 0 0 65 0 65 -587 -2
-588 -3 3 -33 c2 -18 1 -46 -3 -62 -6 -29 -8 -30 -66 -30 l-59 0 0 60 c0 66 1
67 85 72 l40 3 3 162 2 162 48 3 47 3 3 53 3 52 98 0 98 0 7 -50 7 -50 209 0
209 0 3 -52 c2 -35 7 -53 16 -52 6 1 53 2 102 3 l90 1 0 50 0 50 220 0 220 0
0 50 0 49 -112 3 -113 3 -3 48 -3 47 -46 0 -45 0 4 -40 c4 -47 -1 -50 -79 -50
l-56 0 6 -50 c6 -48 5 -50 -18 -50 -28 0 -33 15 -9 24 12 5 14 14 9 45 -4 24
-2 42 4 46 14 8 14 25 1 25 -5 0 -10 -7 -10 -16 0 -18 -22 -14 -28 4 -2 7 11
18 28 26 20 8 28 16 21 20 -6 4 -10 23 -8 42 1 26 6 34 22 34 19 1 19 2 3 14
-10 7 -14 16 -11 20 4 4 -40 7 -97 6 -58 -1 -113 -1 -123 -1 -15 1 -18 8 -17
39 3 60 3 61 -47 64 l-48 3 3 42 3 42 -47 3 -48 3 0 40 c-1 39 -1 40 -41 40
-40 0 -40 0 -43 43 -3 39 -1 42 21 42 14 0 39 3 56 6 l31 7 0 73 0 74 -71 0
-71 0 6 58 c3 31 5 63 5 70 1 8 23 12 76 12 l74 0 6 33 c3 17 5 151 3 297 l-3
265 -57 3 -58 3 0 -101 0 -101 -27 3 c-27 3 -28 1 -31 -42 -2 -24 -9 -48 -15
-52 -9 -6 -9 -8 1 -8 6 0 12 -11 12 -25 0 -14 5 -25 12 -25 6 0 4 -6 -6 -13
-16 -12 -15 -13 13 -11 17 1 34 -3 38 -9 4 -7 -31 -8 -117 -4 -138 8 -150 4
-150 -48 0 -57 7 -65 61 -65 l49 0 0 -60 0 -60 -50 0 -50 0 0 60 0 60 -44 0
-45 0 -3 53 -3 52 -57 3 c-42 2 -58 -1 -59 -10 -1 -7 -3 -20 -4 -28 -1 -8 -3
-30 -4 -47 l-1 -33 -90 0 -90 0 0 105 0 105 -55 0 -56 0 3 -112 3 -113 43 3
42 4 0 -55 c0 -35 5 -57 13 -59 8 -3 14 -36 17 -99 l5 -94 35 -5 c26 -4 36
-10 38 -26 3 -18 -1 -21 -22 -17 -15 3 -37 -2 -52 -12 -14 -9 -29 -13 -32 -9
-4 4 -1 9 6 11 18 7 15 23 -5 21 -10 -1 -26 0 -37 0 -16 2 -17 4 -5 19 12 14
12 16 0 8 -11 -6 -13 0 -9 37 5 40 3 45 -15 44 -15 -1 -21 -9 -24 -38 -2 -22
1 -38 7 -38 5 0 10 -6 10 -14 0 -16 -58 -38 -96 -38 -22 0 -24 -5 -24 -43 0
-24 5 -45 11 -47 7 -2 7 -12 0 -31 -7 -18 -7 -26 -1 -22 15 9 12 -31 -6 -73
-12 -28 -16 -64 -14 -146 l2 -109 -91 7 -90 7 -3 -68 c-3 -60 -5 -68 -23 -68
-17 0 -20 -8 -23 -47 l-3 -48 -63 0 c-71 0 -76 -4 -76 -71 l0 -39 -135 0 -135
0 0 -63 0 -64 -287 -6 c-364 -9 -819 -9 -1135 0 l-248 6 0 64 0 63 -159 0
-160 0 -3 53 -3 52 -52 3 -52 3 -3 52 -3 52 -32 -3 -33 -3 0 67 0 67 -65 -7
c-35 -4 -77 -3 -91 0 -24 6 -25 8 -11 19 14 10 16 35 14 175 -2 120 -5 164
-15 168 -7 2 -12 22 -12 53 0 42 -3 49 -19 49 -11 0 -27 3 -36 6 -13 5 -14 8
-3 15 10 6 8 9 -7 9 -12 0 -16 3 -9 8 7 4 13 45 15 99 2 50 1 86 -3 80 -3 -6
-8 -2 -11 9 -2 10 -3 6 -1 -9 2 -17 0 -26 -6 -22 -6 4 -10 -8 -10 -27 0 -18
-4 -39 -8 -45 -4 -7 -6 17 -4 54 4 65 4 66 -18 60 -13 -3 -31 -2 -41 4 -14 7
-24 4 -40 -12 -26 -26 -37 -17 -19 16 8 14 14 44 14 67 l1 41 45 1 45 1 3 113
3 112 -56 0 -55 0 0 -105 0 -105 -75 0 -75 0 0 54 c0 60 -6 66 -71 66 -63 0
-79 -13 -79 -65 l0 -45 -50 0 -50 0 0 55 0 55 -105 0 -105 0 0 195 0 195 60 0
60 0 0 145 c0 80 -2 145 -4 145 -2 0 -6 -8 -9 -19z m450 -926 c-15 -16 -22
-11 -13 10 3 9 10 13 16 10 6 -4 5 -11 -3 -20z m200 -152 c-3 -10 -5 -4 -5 12
0 17 2 24 5 18 2 -7 2 -21 0 -30z m-211 -38 c-3 -10 1 -15 12 -15 15 0 15 -2
2 -10 -23 -15 -30 -12 -30 15 0 14 5 25 11 25 6 0 9 -7 5 -15z m59 5 c3 -5 1
-10 -4 -10 -6 0 -11 5 -11 10 0 6 2 10 4 10 3 0 8 -4 11 -10z m12 -62 c-3 -7
-5 -2 -5 12 0 14 2 19 5 13 2 -7 2 -19 0 -25z m161 -3 c-3 -3 -9 2 -12 12 -6
14 -5 15 5 6 7 -7 10 -15 7 -18z m3892 -35 c0 -38 -2 -40 -30 -40 -27 0 -30 3
-30 33 0 40 6 47 37 47 20 0 23 -5 23 -40z m-653 -122 c-2 -13 -4 -3 -4 22 0
25 2 35 4 23 2 -13 2 -33 0 -45z m26 -136 c-7 -2 -21 -2 -30 1 -15 3 -13 6 7
14 14 6 24 13 23 17 -2 3 -2 27 -1 54 1 42 2 41 7 -18 4 -48 3 -66 -6 -68z
m-3355 -69 c-10 -2 -28 -2 -40 0 -13 2 -5 4 17 4 22 1 32 -1 23 -4z m-228
-147 c11 -11 1 -38 -11 -30 -5 3 -8 33 -7 67 1 53 2 56 5 17 3 -25 8 -49 13
-54z m3465 74 c-3 -5 -18 -9 -33 -9 l-27 1 30 8 c17 4 31 8 33 9 2 0 0 -3 -3
-9z m-3162 -7 c-7 -2 -21 -2 -30 0 -10 3 -4 5 12 5 17 0 24 -2 18 -5z m4376
-127 c7 -8 8 -17 3 -20 -6 -3 -12 3 -15 14 -6 24 -4 25 12 6z m-147 -51 c3
-16 1 -25 -7 -25 -8 0 -10 9 -7 25 2 14 6 25 7 25 1 0 5 -11 7 -25z m43 -15
c3 -5 -1 -10 -10 -10 -9 0 -13 5 -10 10 3 6 8 10 10 10 2 0 7 -4 10 -10z
m-3860 -230 c-3 -5 -18 -10 -33 -9 -24 0 -25 1 -7 9 28 12 47 12 40 0z m2468
-7 c-24 -2 -62 -2 -85 0 -24 2 -5 4 42 4 47 0 66 -2 43 -4z m-2613 -113 c0 -5
-19 -9 -42 -9 -40 1 -41 2 -13 9 44 11 55 11 55 0z m-327 -7 c-7 -2 -19 -2
-25 0 -7 3 -2 5 12 5 14 0 19 -2 13 -5z m3044 1 c-3 -3 -12 -4 -19 -1 -8 3 -5
6 6 6 11 1 17 -2 13 -5z m-2567 -79 l0 -75 -70 0 -70 0 0 69 c0 78 -2 77 93
80 l47 1 0 -75z m2504 59 c3 -9 6 -42 6 -74 0 -56 -1 -58 -31 -64 -40 -8 -83
-8 -103 0 -12 5 -16 21 -16 74 0 77 -1 77 86 79 39 1 53 -3 58 -15z m-3144
-53 c0 -33 -3 -62 -7 -64 -5 -2 -32 -2 -60 1 l-53 4 0 59 0 59 60 0 60 0 0
-59z m358 -8 c-1 -47 -3 -55 -5 -28 -3 22 -9 45 -15 52 -7 9 -7 13 1 13 6 0
11 7 11 15 0 8 2 15 5 15 3 0 4 -30 3 -67z"/>
<path d="M3510 3245 l0 -75 -55 0 -55 0 0 -60 0 -60 80 0 c44 0 79 3 79 8 -1
4 -1 26 0 50 1 34 5 42 20 42 16 0 19 9 20 85 l2 85 -46 0 -45 0 0 -75z"/>
<path d="M6550 3185 l0 -135 28 -1 c43 -2 64 -2 120 -1 l52 2 0 60 0 60 -57 0
-58 0 3 75 4 75 -46 0 -46 0 0 -135z"/>
<path d="M2950 2690 c0 -5 7 -7 15 -4 8 4 15 8 15 10 0 2 -7 4 -15 4 -8 0 -15
-4 -15 -10z"/>
<path d="M7530 2510 c0 -14 -3 -42 -6 -62 l-7 -38 87 0 86 0 0 -82 0 -81 179
7 179 6 7 -55 6 -55 140 0 139 0 0 50 0 49 112 3 111 3 -2 78 -2 77 99 0 100
0 7 -49 c10 -74 2 -89 -48 -93 l-42 -3 0 -55 0 -55 103 -3 103 -3 -3 128 -3
128 -52 3 -52 3 -3 57 -3 57 -100 0 -100 0 -3 -58 -3 -58 -147 3 -147 3 -3 58
-3 58 -62 -3 -62 -3 -3 -57 -3 -58 66 0 65 0 0 -64 0 -64 -42 -5 c-90 -12 -93
-10 -96 66 l-3 67 -214 0 -214 0 -3 58 -3 57 -78 5 c-77 5 -77 5 -77 -20z"/>
<path d="M9110 2357 c0 -70 -13 -85 -75 -89 l-50 -3 0 -55 0 -55 60 0 60 0 1
50 1 50 56 3 57 3 0 -33 c0 -18 3 -44 7 -57 6 -22 10 -23 58 -18 l53 5 6 -36
c3 -21 6 -52 6 -69 0 -31 -2 -33 -37 -35 -21 0 -44 -1 -51 -1 -10 1 -13 -14
-10 -58 l3 -59 -72 0 c-39 0 -83 -4 -97 -10 -14 -5 -28 -5 -31 0 -3 4 -160 9
-350 10 l-345 1 0 -106 c0 -63 4 -105 10 -105 6 0 10 4 10 10 0 5 13 7 30 4
19 -4 30 -2 30 5 0 6 9 11 20 11 11 0 20 -4 20 -10 0 -5 5 -10 11 -10 5 0 7 5
4 10 -3 6 5 14 20 20 24 9 25 10 8 28 -10 10 -21 17 -25 15 -5 -2 -8 1 -8 6 0
16 16 13 34 -4 13 -13 15 -13 18 7 2 13 6 22 11 21 4 -2 75 -3 157 -3 l150 0
0 -50 0 -50 -44 0 -44 0 -7 -54 -6 -55 -47 -3 -47 -3 -3 -58 -3 -58 53 3 53 3
3 58 3 57 54 0 55 0 0 50 0 49 103 3 102 3 3 37 3 38 247 2 247 3 3 140 c4
180 2 187 -46 185 -63 -3 -72 -1 -72 19 0 43 -10 51 -66 51 l-53 0 -3 48 -3
47 -55 5 -55 5 -3 68 -3 67 -59 0 -60 0 0 -53z m350 -449 c0 -5 -7 -8 -15 -8
-15 0 -20 21 -8 33 7 7 23 -11 23 -25z m-933 -110 c-3 -7 -5 -2 -5 12 0 14 2
19 5 13 2 -7 2 -19 0 -25z m516 15 c-29 -2 -78 -2 -110 0 -32 2 -8 3 52 3 61
0 87 -1 58 -3z"/>
<path d="M7998 1883 c7 -3 16 -2 19 1 4 3 -2 6 -13 5 -11 0 -14 -3 -6 -6z"/>
<path d="M8518 1703 c7 -3 16 -2 19 1 4 3 -2 6 -13 5 -11 0 -14 -3 -6 -6z"/>
<path d="M8467 1473 c-4 -3 -7 -30 -7 -60 l0 -53 -160 0 -160 0 0 -37 c0 -64
1 -64 166 -61 l149 3 3 47 3 47 52 3 52 3 3 58 3 57 -49 0 c-27 0 -52 -3 -55
-7z"/>
</g>
</svg>
