<?xml version="1.0" standalone="no"?>
<!DOCTYPE svg PUBLIC "-//W3C//DTD SVG 20010904//EN"
 "http://www.w3.org/TR/2001/REC-SVG-20010904/DTD/svg10.dtd">
<svg version="1.0" xmlns="http://www.w3.org/2000/svg"
 width="1280.000000pt" height="720.000000pt" viewBox="0 0 1280.000000 720.000000"
 preserveAspectRatio="xMidYMid meet">

<g transform="translate(0.000000,720.000000) scale(0.100000,-0.100000)"
fill="#000000" stroke="none">
<path d="M0 3600 l0 -3600 3210 0 3210 0 0 3600 0 3600 -3210 0 -3210 0 0
-3600z m1480 1800 l515 -1 489 -654 c269 -360 495 -655 501 -655 7 0 34 24 60
53 26 28 84 90 129 137 45 47 173 184 285 305 112 121 234 252 270 290 37 39
163 172 280 297 l212 227 137 3 c142 3 165 1 160 -13 -2 -4 -50 -59 -108 -121
-58 -62 -234 -250 -390 -418 -396 -425 -386 -415 -471 -504 -218 -232 -412
-442 -416 -452 -2 -7 107 -162 244 -345 137 -184 257 -346 268 -361 11 -14
119 -158 241 -320 236 -314 669 -895 722 -967 17 -24 29 -48 26 -53 -3 -4
-243 -8 -533 -8 -489 0 -530 1 -549 18 -11 9 -85 105 -164 212 -236 318 -523
704 -647 868 -64 85 -126 168 -137 185 -12 18 -38 50 -58 72 l-36 40 -62 -65
c-35 -36 -222 -236 -417 -445 -195 -209 -420 -450 -500 -535 -80 -85 -173
-184 -206 -219 -33 -36 -74 -80 -92 -98 l-32 -33 -140 0 c-83 0 -142 4 -146
10 -3 6 29 47 72 93 43 45 137 145 208 222 72 77 202 216 290 310 88 94 221
236 295 315 74 80 173 186 220 235 208 220 346 369 358 386 14 21 53 -32
-1153 1578 -154 206 -284 381 -289 389 -10 17 8 32 33 27 9 -2 248 -4 531 -5z"/>
<path d="M1380 5158 c0 -7 240 -333 533 -723 292 -391 603 -805 689 -920 86
-116 363 -484 615 -820 l458 -610 249 -3 c137 -1 253 1 258 6 4 4 -342 473
-770 1043 -427 569 -785 1046 -795 1060 -190 256 -703 940 -717 957 -20 22
-23 22 -270 22 -193 0 -250 -3 -250 -12z"/>
</g>
</svg>
